{
  "accessors": [
    {
      "name": "Node-Mesh_0_positions",
      "componentType": 5126,
      "count": 3,
      "min": [
        0,
        0,
        0
      ],
      "max": [
        1,
        0.8659999966621399,
        0
      ],
      "type": "VEC3",
      "bufferView": 0,
      "byteOffset": 0
    },
    {
      "name": "Node-Mesh_0_indices",
      "componentType": 5123,
      "count": 3,
      "min": [
        0
      ],
      "max": [
        2
      ],
      "type": "SCALAR",
      "bufferView": 1,
      "byteOffset": 0
    },
    {
      "name": "Node-Mesh_1_positions",
      "componentType": 5126,
      "count": 3,
      "min": [
        0,
        0,
        0
      ],
      "max": [
        1,
        0.28870001435279846,
        0.8165000081062317
      ],
      "type": "VEC3",
      "bufferView": 0,
      "byteOffset": 36
    },
    {
      "name": "Node-Mesh_1_indices",
      "componentType": 5123,
      "count": 3,
      "min": [
        0
      ],
      "max": [
        2
      ],
      "type": "SCALAR",
      "bufferView": 1,
      "byteOffset": 8
    },
    {
      "name": "Node-Mesh_2_positions",
      "componentType": 5126,
      "count": 3,
      "min": [
        0.5,
        0,
        0
      ],
      "max": [
        1,
        0.8659999966621399,
        0.8165000081062317
      ],
      "type": "VEC3",
      "bufferView": 0,
      "byteOffset": 72
    },
    {
      "name": "Node-Mesh_2_indices",
      "componentType": 5123,
      "count": 3,
      "min": [
        0
      ],
      "max": [
        2
      ],
      "type": "SCALAR",
      "bufferView": 1,
      "byteOffset": 16
    },
    {
      "name": "Node-Mesh_3_positions",
      "componentType": 5126,
      "count": 3,
      "min": [
        0,
        0,
        0
      ],
      "max": [
        0.5,
        0.8659999966621399,
        0.8165000081062317
      ],
      "type": "VEC3",
      "bufferView": 0,
      "byteOffset": 108
    },
    {
      "name": "Node-Mesh_3_indices",
      "componentType": 5123,
      "count": 3,
      "min": [
        0
      ],
      "max": [
        2
      ],
      "type": "SCALAR",
      "bufferView": 1,
      "byteOffset": 24
    }
  ],
  "asset": {
    "generator": "obj2gltf",
    "version": "2.0"
  },
  "buffers": [
    {
      "name": "tetrahedron",
      "byteLength": 176,
      "uri": "data:application/octet-stream;base64,"
    }
  ],
  "bufferViews": [
    {
      "name": "bufferView_0",
      "buffer": 0,
      "byteLength": 144,
      "byteOffset": 0,
      "byteStride": 12,
      "target": 34962
    },
    {
      "name": "bufferView_1",
      "buffer": 0,
      "byteLength": 32,
      "byteOffset": 144,
      "target": 34963
    }
  ],
  "materials": [
    {
      "name": "green1",
      "pbrMetallicRoughness": {
        "baseColorFactor": [
          0,
          1,
          0,
          1
        ],
        "metallicFactor": 0,
        "roughnessFactor": 0.99
      },
      "emissiveFactor": [
        0,
        0,
        0
      ],
      "alphaMode": "OPAQUE",
      "doubleSided": false
    },
    {
      "name": "red1",
      "pbrMetallicRoughness": {
        "baseColorFactor": [
          1,
          0,
          0,
          1
        ],
        "metallicFactor": 0,
        "roughnessFactor": 0.99
      },
      "emissiveFactor": [
        0,
        0,
        0
      ],
      "alphaMode": "OPAQUE",
      "doubleSided": false
    },
    {
      "name": "blue1",
      "pbrMetallicRoughness": {
        "baseColorFactor": [
          0,
          0,
          1,
          1
        ],
        "metallicFactor": 0,
        "roughnessFactor": 0.99
      },
      "emissiveFactor": [
        0,
        0,
        0
      ],
      "alphaMode": "OPAQUE",
      "doubleSided": false
    },
    {
      "name": "purple1",
      "pbrMetallicRoughness": {
        "baseColorFactor": [
          1,
          0,
          1,
          1
        ],
        "metallicFactor": 0,
        "roughnessFactor": 0.99
      },
      "emissiveFactor": [
        0,
        0,
        0
      ],
      "alphaMode": "OPAQUE",
      "doubleSided": false
    }
  ],
  "meshes": [
    {
      "name": "Node-Mesh",
      "primitives": [
        {
          "attributes": {
            "POSITION": 0
          },
          "indices": 1,
          "material": 0,
          "mode": 4
        },
        {
          "attributes": {
            "POSITION": 2
          },
          "indices": 3,
          "material": 1,
          "mode": 4
        },
        {
          "attributes": {
            "POSITION": 4
          },
          "indices": 5,
          "material": 2,
          "mode": 4
        },
        {
          "attributes": {
            "POSITION": 6
          },
          "indices": 7,
          "material": 3,
          "mode": 4
        }
      ]
    }
  ],
  "nodes": [
    {
      "name": "Node",
      "mesh": 0
    }
  ],
  "scene": 0,
  "scenes": [
    {
      "nodes": [
        0
      ]
    }
  ]
}
